<svg xmlns="http://www.w3.org/2000/svg" width="1200" height="420" viewBox="0 0 1200 420" role="img" aria-labelledby="title desc">
<title id="title">OpenBid Intel</title><desc id="desc">Local-first procurement intelligence pipeline</desc>
<defs><linearGradient id="bg" x1="0" y1="0" x2="1" y2="1"><stop stop-color="#07111f"/><stop offset="1" stop-color="#102a43"/></linearGradient><linearGradient id="accent" x1="0" y1="0" x2="1" y2="0"><stop stop-color="#22d3ee"/><stop offset="1" stop-color="#818cf8"/></linearGradient></defs>
<rect width="1200" height="420" rx="28" fill="url(#bg)"/><circle cx="1060" cy="50" r="180" fill="#22d3ee" opacity=".08"/><circle cx="130" cy="390" r="220" fill="#818cf8" opacity=".08"/>
<text x="70" y="105" fill="#f8fafc" font-family="Segoe UI,Arial,sans-serif" font-size="58" font-weight="700">OpenBid Intel</text><text x="72" y="150" fill="#9fb3c8" font-family="Segoe UI,Arial,sans-serif" font-size="24">Turn public tender notices into ranked sales opportunities.</text>
<g font-family="Segoe UI,Arial,sans-serif" font-size="16" font-weight="600" text-anchor="middle"><g fill="#0b1728" stroke="#22d3ee" stroke-width="2"><rect x="62" y="224" width="145" height="66" rx="14"/><rect x="249" y="224" width="145" height="66" rx="14"/><rect x="436" y="224" width="145" height="66" rx="14"/><rect x="623" y="224" width="145" height="66" rx="14"/><rect x="810" y="224" width="145" height="66" rx="14"/><rect x="997" y="224" width="145" height="66" rx="14"/></g><g fill="#e6f6ff"><text x="134" y="264">COLLECT</text><text x="321" y="264">NORMALIZE</text><text x="508" y="264">DEDUPE</text><text x="695" y="264">SCORE</text><text x="882" y="264">DIGEST</text><text x="1069" y="264">FEEDBACK</text></g><g stroke="url(#accent)" stroke-width="4"><path d="M207 257h40"/><path d="M394 257h40"/><path d="M581 257h40"/><path d="M768 257h40"/><path d="M955 257h40"/></g></g>
<g font-family="Segoe UI,Arial,sans-serif" font-size="16"><rect x="62" y="330" width="1080" height="52" rx="13" fill="#0b1728" stroke="#334e68"/><text x="88" y="362" fill="#67e8f9">LOCAL-FIRST</text><text x="250" y="362" fill="#cbd5e1">SQLite</text><text x="350" y="362" fill="#cbd5e1">Explainable scoring</text><text x="550" y="362" fill="#cbd5e1">Human feedback</text><text x="730" y="362" fill="#cbd5e1">Competitor discovery</text><text x="957" y="362" fill="#a5b4fc">0 runtime deps</text></g></svg>